<svg width="123" height="34" viewBox="0 0 123 34" fill="none" xmlns="http://www.w3.org/2000/svg">
<g clip-path="url(#clip0_4_27)">
<path fill-rule="evenodd" clip-rule="evenodd" d="M122.98 27.6266C122.946 27.2599 122.845 26.8263 122.677 26.3258C122.408 25.8246 122.174 25.4579 121.938 25.1908C121.837 25.0912 121.703 24.9574 121.468 24.7571C121.3 24.49 121.199 24.3235 121.099 24.2234L119.889 22.855C119.687 22.6216 119.352 22.2549 118.914 21.7544L118.646 21.4872C118.545 21.3207 118.444 21.1869 118.411 21.1537C118.377 21.0536 118.243 20.9203 118.075 20.7195L117.671 20.319C117.638 20.2859 117.537 20.1526 117.403 19.9855C117.235 19.8185 117.101 19.6852 117.033 19.5851C116.798 19.2847 116.597 19.0513 116.362 18.8179L116.16 18.6177C116.059 18.4838 115.992 18.3843 115.958 18.3506C115.824 18.2173 115.723 18.0834 115.656 17.9839L115.186 17.5165C115.152 17.4164 115.051 17.3163 114.917 17.183C114.749 17.0159 114.615 16.8826 114.581 16.7825C114.48 16.6824 114.48 16.5154 114.581 16.3489L115.051 15.8815C115.219 15.7145 115.387 15.5812 115.521 15.4811L116.899 14.1133C117 14.0795 117.101 13.9794 117.268 13.8129C117.403 13.6459 117.504 13.5126 117.605 13.4788L118.411 12.6779L118.848 12.2443C118.948 12.2111 119.083 12.0778 119.251 11.9108L119.587 11.5773C119.687 11.4772 119.788 11.3433 119.956 11.1099L120.561 10.5424C120.729 10.3759 120.964 10.1088 121.233 9.74208C121.468 9.37481 121.669 8.97436 121.804 8.57391C121.905 8.44063 121.972 8.20723 122.072 7.87314C122.106 7.3394 122.106 6.7719 122.072 6.17181C121.938 5.40409 121.669 4.70331 121.233 4.10264C121.098 3.96935 120.897 3.73595 120.628 3.36868L119.654 2.60154C119.15 2.36814 118.713 2.23427 118.344 2.13416C118.108 2.03404 117.772 2.00086 117.268 2.00086C117.101 2.00086 116.765 2.03404 116.227 2.13416C115.992 2.23427 115.757 2.33438 115.521 2.46767C115.219 2.60154 114.883 2.76859 114.581 2.96823C114.346 3.20221 113.976 3.5689 113.472 4.10264C113.17 4.46991 112.935 4.77024 112.767 4.93729C112.666 5.07058 112.498 5.2708 112.229 5.5042C111.994 5.77136 111.826 5.97159 111.692 6.10488C111.524 6.27192 111.288 6.57226 110.919 6.93953C110.818 7.07282 110.65 7.27305 110.381 7.53962C110.18 7.83996 109.978 8.10712 109.743 8.30734L109.475 8.57391C109.34 8.74096 109.239 8.87425 109.206 8.90743C109.105 9.0413 108.937 9.2747 108.702 9.57504C108.433 9.80844 108.231 10.0087 108.097 10.1425L107.123 11.3101C107.089 11.3433 106.988 11.4102 106.854 11.5103C106.821 11.6105 106.686 11.7437 106.518 11.9108C106.485 11.944 106.417 12.0447 106.317 12.178C106.216 12.3112 106.148 12.4113 106.115 12.4451L105.745 12.8118L105.678 12.8787C105.678 12.8787 105.644 12.845 105.611 12.7449V12.3782V11.4434V10.7432V10.476C105.611 9.00812 105.644 7.83995 105.678 7.00588C105.678 6.63861 105.644 6.3051 105.611 6.03853C105.578 5.60432 105.409 5.10376 105.141 4.46991C104.872 3.96935 104.536 3.50254 104.099 3.1021C103.831 2.86811 103.528 2.66848 103.159 2.46767H103.091C103.058 2.43449 103.058 2.40131 103.058 2.40131C102.924 2.3012 102.823 2.23427 102.722 2.20109C102.588 2.16733 102.251 2.06722 101.714 1.93393C101.681 1.93393 101.579 1.90075 101.412 1.86758C101.243 1.83382 101.109 1.80064 101.076 1.80064C101.042 1.80064 100.975 1.83382 100.874 1.86758H100.739C100.639 1.86758 100.269 1.90075 99.6312 2.00086C99.5972 2.00086 99.463 2.03404 99.2949 2.13416C99.1273 2.16733 98.9925 2.23427 98.9591 2.26802C98.8583 2.3012 98.6567 2.43449 98.3883 2.60154C98.3543 2.63472 98.2535 2.70165 98.1193 2.76858C98.0185 2.86811 97.9517 2.93505 97.8503 2.96823C97.6153 3.13527 97.3463 3.40185 97.0779 3.76912C96.9771 3.90299 96.9097 4.03628 96.8089 4.1364C96.6747 4.3698 96.574 4.57001 96.4732 4.804C96.4732 4.83717 96.4392 4.93729 96.4058 5.07058C96.305 5.17069 96.2716 5.23763 96.2716 5.33774C96.1708 5.63808 96.1374 5.90465 96.1374 6.17181V6.83884V9.24152V9.87538C96.1708 10.3096 96.1708 10.5424 96.1374 10.5424V11.0767V11.9108V14.0463C96.1374 15.0143 96.1708 15.7145 96.2042 16.215V16.7156C96.1708 16.9827 96.1708 17.2831 96.2042 17.6498L96.1374 18.2173C96.1374 18.6177 96.1708 18.8179 96.2042 18.8179C96.2042 19.0513 96.1708 19.418 96.1374 19.9192V20.9535V22.2549V23.1885C96.1374 23.5226 96.1708 23.7898 96.2042 24.0232C96.2042 24.3235 96.1708 24.5901 96.1374 24.8241V26.6924V27.3601V27.927V28.995V29.1615C96.1708 29.2954 96.2042 29.3955 96.2042 29.495C96.3724 29.9956 96.5405 30.3628 96.6747 30.6632C96.7081 30.7965 96.7755 30.8966 96.8089 30.9303C96.8424 31.0304 96.9097 31.0968 96.9431 31.1305C97.1787 31.4972 97.5145 31.8645 97.9851 32.2312C98.5225 32.6316 99.0599 32.8988 99.6312 33.0321C100.034 33.166 100.438 33.2323 100.874 33.2323C101.311 33.2323 101.747 33.166 102.117 33.0321C102.823 32.865 103.494 32.4984 104.166 31.9314C104.603 31.3971 104.872 30.9967 105.006 30.7301C105.141 30.5299 105.309 30.1626 105.477 29.6289C105.578 29.2616 105.611 28.8949 105.611 28.5946V27.4933C105.611 27.1261 105.644 26.1587 105.544 25.7914V21.22V20.4529V20.1194V19.9855C105.578 19.9855 105.644 20.0193 105.678 20.0525L105.745 20.1194L106.317 20.8865L106.921 21.6874C107.156 21.9878 107.325 22.2212 107.492 22.3882C107.492 22.3882 107.66 22.6216 108.03 23.1222L108.634 23.8899L109.407 24.8904C109.441 24.9242 109.508 25.0243 109.609 25.1244L109.81 25.3241C109.844 25.3578 110.214 25.8584 110.919 26.8263C111.154 27.1261 111.524 27.5935 112.028 28.1941C112.196 28.4613 112.498 28.8611 112.935 29.3617C113.17 29.662 113.539 30.1294 114.077 30.7301L114.144 30.7965C114.144 30.8296 114.245 30.9635 114.447 31.1969L114.648 31.3971C114.816 31.7644 114.951 31.9314 115.118 31.9646C115.555 32.3651 116.093 32.6654 116.765 32.8988C116.899 32.932 117.201 33.0321 117.671 33.166C118.243 33.166 118.679 33.1322 118.982 33.099C119.418 32.9989 119.889 32.865 120.36 32.6986L120.628 32.5653C120.998 32.2981 121.132 32.265 121.3 32.0979C121.737 31.7306 121.972 31.4641 122.072 31.3308C122.442 30.6964 122.644 30.2959 122.677 30.1626C122.745 29.9956 122.811 29.729 122.912 29.3617C123.014 28.8611 123.014 28.2605 122.98 27.6266ZM83.2706 11.8439C83.1698 11.4772 83.035 11.1768 82.8674 10.9429C82.4308 10.5762 82.0611 10.4091 81.7587 10.4091H81.5571C81.2547 10.3759 80.8181 10.3428 80.2467 10.3428H79.2053C78.7688 10.3096 78.4324 10.2758 78.2314 10.2758C78.1306 10.3096 78.0966 10.3759 78.0966 10.4091V10.6093V12.178V13.2122V13.9124C78.1306 14.0131 78.164 14.0463 78.164 14.0463H78.9364H79.3395H79.8775H80.7173H81.7587C81.7587 14.0795 81.8255 14.1133 81.9603 14.1133L82.0944 14.0463C82.565 13.8129 82.9008 13.5126 83.069 13.2122C83.304 12.7786 83.3714 12.3112 83.2706 11.8439ZM92.1395 27.6266C92.1729 27.86 92.2069 28.1604 92.2069 28.5276C92.2069 28.9281 92.1061 29.3955 91.9379 29.9624C91.8371 30.2295 91.7363 30.4629 91.6021 30.6632C91.4339 31.0304 91.2657 31.297 91.1315 31.4641C90.6949 31.8977 90.3592 32.198 90.0902 32.3651L89.5188 32.7655C88.9814 32.9989 88.679 33.099 88.6456 33.099C88.209 33.1991 87.9066 33.1992 87.6716 33.166C87.4027 33.166 87.0669 33.1322 86.6971 33.0321C86.1931 32.7987 85.6891 32.4984 85.1183 32.0979L84.8493 31.8645C84.547 31.5642 84.312 31.297 84.1778 31.1305C84.1104 30.9967 83.7746 30.4629 83.2032 29.5619C83.035 29.2616 82.834 28.9281 82.6318 28.5276C82.5984 28.4945 82.5316 28.3606 82.4308 28.1941C82.3294 28.0271 82.2626 27.8938 82.2286 27.86C82.1952 27.8269 81.9937 27.5265 81.6913 27.026C81.5237 26.7256 81.3555 26.4259 81.1879 26.1919C81.0865 26.0586 80.9857 25.8584 80.8515 25.5912C80.6839 25.3578 80.5491 25.1908 80.5157 25.0575C80.2467 24.6908 80.0117 24.2566 79.8101 23.823C79.5411 23.4894 79.3735 23.2223 79.2722 23.0552C79.1046 22.6885 78.9704 22.4546 78.8696 22.3213C78.8356 22.2212 78.7688 22.121 78.668 21.954C78.5672 21.8207 78.5338 21.7206 78.4998 21.6205C78.4664 21.5873 78.399 21.454 78.3656 21.287C78.2648 21.1537 78.2314 21.0536 78.2314 21.0198L78.0966 20.8865C78.0632 20.9203 77.9958 20.9535 77.9624 20.9535V21.0198C77.9958 21.3871 78.0292 21.8207 78.0292 22.3882V24.1565C78.0632 24.5237 78.0966 24.9574 78.0966 25.5249C78.0632 25.5249 78.0292 25.625 78.0292 25.7914L78.0966 26.0586V28.0608C78.0966 28.4275 78.0632 28.6941 78.0292 28.8612C78.0292 28.995 77.9958 29.0946 77.9624 29.1615C77.9624 29.1952 77.929 29.2616 77.895 29.3617C77.8616 29.5951 77.7948 29.729 77.7608 29.8291C77.5926 30.3297 77.3916 30.7633 77.156 31.1305C76.921 31.4972 76.4844 31.8977 75.9131 32.3651C75.8123 32.4652 75.6447 32.5653 75.4091 32.6986C75.1741 32.7987 75.0393 32.8651 74.9385 32.8988C74.8383 32.8988 74.7035 32.932 74.4685 33.0321C74.3003 33.0658 74.1995 33.099 74.0987 33.099H73.4271L72.52 32.8988C72.285 32.7987 72.0834 32.6986 71.8484 32.5653C71.7136 32.5315 71.3444 32.2981 70.7391 31.8645C70.5041 31.5974 70.3359 31.3639 70.2017 31.1305C70.0341 30.8966 69.8993 30.6964 69.7651 30.4961C69.6643 30.2296 69.5969 30.0293 69.4961 29.8955C69.4961 29.7959 69.4627 29.6621 69.3619 29.495C69.3285 29.3617 69.2951 29.2616 69.2951 29.1615C69.2951 28.995 69.2611 28.8949 69.2277 28.7948V28.0608V26.3258V25.7914V22.4546V21.8207V20.4529V19.9192V19.3517V18.8179V18.2842V17.6498V17.5165C69.2611 17.5165 69.2611 17.3494 69.2277 17.0497V16.6155V16.0148V15.1807V14.3798V9.87538V6.83884C69.2277 6.40521 69.2611 6.0717 69.2951 5.83771C69.3953 5.2708 69.5301 4.77024 69.6983 4.33662C69.7985 4.20274 69.8659 4.03628 69.9667 3.83606C70.0675 3.70219 70.2356 3.46879 70.4706 3.1021C70.773 2.76858 71.1422 2.50143 71.5794 2.26802C71.9486 2.03404 72.4526 1.90075 73.0914 1.80064C73.3932 1.76747 73.7963 1.73371 74.3003 1.73371H74.4685H75.5433H75.7789C75.9131 1.76747 76.0139 1.80064 76.0473 1.80064C76.3162 1.80064 76.5178 1.76747 76.652 1.73371H76.8536C76.9544 1.76747 77.0218 1.80064 77.0552 1.80064C77.0552 1.76747 77.3242 1.73371 77.8282 1.73371L78.6006 1.80064C78.6006 1.76747 78.7014 1.73371 78.9364 1.73371L79.3395 1.80064H80.4483H81.3555H82.8C83.304 1.80064 83.6398 1.83382 83.8748 1.86758C84.043 1.96769 84.4128 2.00086 84.5136 2.00086C84.547 2.00086 84.6478 2.03405 84.782 2.06722C85.0175 2.10098 85.1517 2.16733 85.2525 2.20109C85.4541 2.23427 85.7565 2.36814 86.1597 2.5346C86.6637 2.70165 87.0329 2.86811 87.2685 3.03516C87.705 3.26856 88.0742 3.46879 88.3432 3.70219C88.5782 3.93617 88.7798 4.06946 88.9146 4.1364L89.3846 4.60319C89.6202 4.90353 89.922 5.30398 90.2918 5.77136C90.3926 5.87147 90.5607 6.13863 90.5607 6.23816C90.7957 6.53908 90.9639 6.83884 91.0981 7.13917C91.2657 7.67291 91.3671 7.97324 91.4005 8.07336C91.5681 8.57392 91.7029 8.97436 91.7363 9.24152C91.7703 9.37481 91.8037 9.54186 91.8037 9.74208C91.9045 10.0087 91.9379 10.1757 91.9379 10.2758C91.9379 10.4091 91.9713 10.5762 92.0053 10.7432C92.0387 10.9766 92.0721 11.1437 92.0721 11.2438V11.6442C92.1061 11.8107 92.1395 11.944 92.1395 12.0447V13.0784C92.1061 13.1785 92.0721 13.3124 92.0721 13.4788C92.0387 13.6459 92.0053 13.7792 92.0053 13.8461L91.8037 15.0474C91.7703 15.1476 91.7029 15.2477 91.6689 15.4147C91.5681 15.6481 91.5013 15.7814 91.4679 15.8815C91.3671 16.2488 91.2997 16.4822 91.1989 16.6155L90.8965 17.2493L90.4934 17.85C90.4934 17.8837 90.46 17.9501 90.3592 18.017C90.2584 18.1172 90.2244 18.1835 90.2244 18.2173C90.0568 18.4507 89.8552 18.6509 89.6536 18.8843L89.0488 19.4518C88.6116 19.8185 88.3098 20.0525 88.1416 20.1857C88.1082 20.319 88.0742 20.4197 88.0742 20.4529C88.1082 20.553 88.175 20.6194 88.209 20.6531C88.3098 20.7532 88.3772 20.8865 88.444 21.0868C88.679 21.3871 88.8138 21.6205 88.9146 21.7544C89.0148 21.9208 89.183 22.1548 89.452 22.4546C89.6536 22.8218 89.7878 23.089 89.8886 23.2555C89.922 23.3556 90.0568 23.4557 90.2244 23.6227C90.3592 23.8561 90.46 23.9894 90.4934 24.0895C90.8631 24.6239 91.0981 25.0243 91.2657 25.3241C91.4339 25.4911 91.6355 25.8246 91.8037 26.3258C91.9045 26.5254 91.9713 26.7926 92.0721 27.0929C92.0721 27.3601 92.1061 27.5265 92.1395 27.6266ZM15.4875 22.2549C15.3867 22.0209 15.3199 21.8545 15.2191 21.7544C14.9835 21.454 14.7151 21.2538 14.4461 21.22H13.6397C13.3039 21.1869 12.8334 21.1537 12.2626 21.1537C12.027 21.1199 11.6578 21.0868 11.1538 21.0868H10.045H9.77665C9.74266 21.1199 9.67585 21.1537 9.64245 21.1537V21.3539V22.1548V23.0552V23.1222V23.8899L9.77665 24.0232H10.4482H11.0196C11.1204 24.0564 11.2546 24.0895 11.4228 24.0895H11.826H12.3968H12.5984H12.7331H13.0689H13.9761C14.2111 24.1233 14.4127 24.0895 14.6477 23.9562C15.0843 23.589 15.3199 23.2892 15.4201 23.0552C15.5215 22.6885 15.5215 22.4214 15.4875 22.2549ZM9.64245 12.5446C9.67585 12.6779 9.70926 12.7786 9.70926 12.8118L9.84346 12.9451H10.314H10.5156H11.1538H11.6912C12.061 12.9451 12.3634 12.9119 12.5316 12.8118C12.8 12.5784 12.9681 12.4451 13.0689 12.3782L13.2031 12.3112C13.3373 12.0109 13.4047 11.7106 13.4047 11.4434C13.3713 11.1437 13.2365 10.9097 13.0689 10.7432L13.0015 10.6763C12.6992 10.4091 12.33 10.2758 11.9602 10.2758H11.2886C11.0196 10.2426 10.818 10.2089 10.7172 10.2089H10.3814H9.77665L9.70926 10.2758C9.67586 10.3759 9.64245 10.4091 9.64245 10.4091V11.5103V12.5446ZM24.9951 22.5215C25.0285 22.7549 25.0625 22.9889 25.0625 23.2555V24.1565C24.9617 24.3235 24.9277 24.724 24.9277 24.8904V25.1908C24.8269 25.4579 24.7935 25.6581 24.7935 25.7914C24.7935 25.8916 24.7595 25.9917 24.6927 26.125C24.6593 26.292 24.6253 26.3921 24.6253 26.4259C24.5251 26.5923 24.3903 26.9928 24.1554 27.5603C23.7856 28.1941 23.4498 28.7279 23.1134 29.1615C22.576 29.7959 22.1728 30.2296 21.8704 30.4961C21.2323 30.9303 20.7957 31.2301 20.4933 31.3971C19.9893 31.6643 19.5527 31.8645 19.1495 32.031C18.2424 32.2981 17.6042 32.4652 17.2684 32.4984C16.7304 32.5985 16.3272 32.6317 16.0254 32.6317C15.2859 32.6317 14.7151 32.5985 14.3119 32.5653H12.7331C11.9936 32.5653 11.4228 32.5315 11.0196 32.4984H7.69333H6.95436H4.53583C4.30025 32.4984 4.09924 32.4652 3.86366 32.3651C3.15809 32.198 2.5873 31.8977 2.11672 31.531C1.74694 31.2301 1.51194 30.9967 1.37774 30.8634C1.20955 30.63 1.04195 30.4298 0.873762 30.2295C0.840359 30.0957 0.739562 29.9292 0.604776 29.6958C0.437173 29.3285 0.302976 29.0946 0.268986 28.9281C0.268986 28.828 0.23558 28.6941 0.134783 28.4613C0.100794 28.2273 0.067394 28.094 0.067394 27.9939C0.067394 27.8938 0.0339894 27.7267 0 27.4933V27.026V26.9596V26.6924C0.0339894 26.5254 0.067394 26.3921 0.067394 26.3589V25.7914V25.0575V24.0232V22.7217V21.0868V19.2847V18.4175V17.116C0.100798 17.116 0.134783 16.949 0.134783 16.6492L0.067394 16.1487V14.5801V12.9451V11.1099V10.8096C0.100798 10.6431 0.134783 10.5092 0.134783 10.4091V9.87538C0.100794 9.67515 0.067394 9.54186 0.067394 9.44175V8.07336V7.33939V6.23816C0.067394 5.93782 0.100794 5.70443 0.134783 5.57114C0.168187 5.47103 0.235583 5.30398 0.268986 5.07058C0.369782 4.804 0.437175 4.6032 0.470578 4.46991C0.772967 3.96935 0.94057 3.66901 1.04195 3.56889C1.27695 3.26856 1.61274 2.90188 2.11672 2.5346C2.25092 2.40132 2.3857 2.3012 2.55331 2.26802C2.82229 2.10098 3.12469 1.96769 3.42707 1.86758C3.52787 1.83382 3.62866 1.80064 3.79685 1.80064C3.93105 1.70053 4.03185 1.66676 4.13265 1.66676H4.53583C4.70343 1.63359 4.83822 1.60041 4.93902 1.60041C5.24082 1.63359 5.644 1.66676 6.18197 1.66676C6.78675 1.66676 7.25674 1.70053 7.55913 1.73371H8.39949H8.86948H9.27267H10.045C10.28 1.76747 10.5156 1.80064 10.7506 1.80064H12.3968H12.8C12.9681 1.80064 13.2031 1.83382 13.4721 1.86758C13.7071 1.90075 13.9087 1.93393 14.0429 1.93393C14.1437 1.93393 14.2445 1.96769 14.3793 2.06722C14.5469 2.10098 14.6817 2.13416 14.7151 2.13416C15.0843 2.23427 15.3867 2.3012 15.6222 2.40131C15.8572 2.43449 16.1596 2.56778 16.5294 2.73482C17.0668 2.96823 17.436 3.16845 17.6716 3.30174C18.0074 3.46879 18.2424 3.60266 18.3766 3.70219C18.6455 3.86924 18.9145 4.06946 19.2169 4.26968C19.3177 4.36979 19.4519 4.50308 19.6869 4.67013L20.0901 5.07058L20.7957 5.97159C20.8291 6.0717 20.9973 6.27192 21.2663 6.63861C21.5012 6.9727 21.6694 7.30622 21.8036 7.67291C21.8704 7.94007 22.0052 8.30734 22.1728 8.77414C22.2736 9.0413 22.3076 9.27471 22.3076 9.44175C22.3076 9.47493 22.341 9.57503 22.375 9.74208C22.4084 9.87537 22.4418 9.97548 22.4418 10.0087V10.5424C22.4758 10.8096 22.5092 11.0098 22.5092 11.1099C22.5092 11.5441 22.4758 11.8776 22.4418 12.111C22.4418 12.4783 22.375 12.8787 22.2402 13.2792C22.2068 13.3787 22.1394 13.5458 22.106 13.8129C22.0052 14.0463 21.9718 14.2134 21.9718 14.3129C21.9378 14.4136 21.9044 14.4799 21.8704 14.5801C21.837 14.7471 21.7028 14.9805 21.5347 15.2808C21.3665 15.6481 21.1989 15.8815 21.0647 16.0148L20.9973 16.0817V16.1487C20.9973 16.3151 21.0307 16.4484 21.1321 16.4822C21.7028 16.9158 21.9718 17.116 21.9718 17.116C22.341 17.3832 22.576 17.5834 22.7108 17.7167C22.8116 17.8168 22.879 17.9169 22.9792 18.017L23.3156 18.3506C23.4832 18.584 23.618 18.7848 23.7522 19.0182C23.9872 19.3848 24.1888 19.8185 24.4238 20.2527L24.7935 21.22C24.7935 21.3207 24.8269 21.454 24.8609 21.6874C24.9617 22.0547 24.9951 22.3545 24.9951 22.5215ZM62.1356 14.9264C60.1777 13.7501 57.2364 14.9281 55.5657 17.5584C53.8955 20.1881 54.1282 23.2741 56.0861 24.4504C58.0434 25.6273 60.9847 24.4492 62.6554 21.819C64.3262 19.1887 64.0929 16.1033 62.1356 14.9264ZM51.2514 20.6491C50.7298 19.4349 50.22 18.2149 49.7101 17.0008C49.3321 16.1126 48.7784 15.3053 48.081 14.6237C46.9547 13.608 45.2974 13.3805 43.9261 14.0539C43.0546 14.4957 42.2623 15.0736 41.582 15.7639C39.6422 17.531 37.5325 19.0129 34.8896 19.6345C32.2466 20.2556 30.8284 22.7182 30.7874 24.8898C30.7001 26.7891 31.684 28.5829 33.3542 29.5701C34.317 30.2121 35.4135 30.6405 36.5656 30.8244C39.937 31.3738 43.2545 32.2015 46.4811 33.2981L48.5381 33.9424C49.1241 33.9709 49.5402 34.0047 49.968 33.9995C50.3858 33.9971 50.8031 33.9669 51.2162 33.9081C53.4578 33.6555 55.1965 31.8849 55.3536 29.6952C55.4971 28.1871 55.0816 26.6791 54.1815 25.4434C53.0276 23.9539 52.0449 22.3463 51.2514 20.6491ZM51.535 14.3274C53.7836 15.3955 56.8356 13.8123 58.3522 10.7909C59.8695 7.76953 59.2764 4.45478 57.0284 3.38672C54.7804 2.31867 51.7284 3.90241 50.2118 6.92323C48.6945 9.94464 49.287 13.2594 51.535 14.3274ZM41.9605 12.1541C44.4558 12.3235 46.6745 9.74209 46.916 6.38833C47.1568 3.034 45.329 0.177309 42.8331 0.00793334C40.3378 -0.162024 38.1192 2.41935 37.8777 5.77369C37.6369 9.12744 39.4647 11.9841 41.9605 12.1541ZM32.8291 18.7161C30.529 18.7853 28.5845 16.3367 28.4861 13.246C28.3882 10.1559 30.1732 7.59492 32.4734 7.52624C34.7735 7.45697 36.7174 9.90564 36.8158 12.9957C36.9137 16.0858 35.1287 18.6468 32.8291 18.7161Z" fill="black"/>
</g>
<defs>
<clipPath id="clip0_4_27">
<rect width="123" height="34" fill="white"/>
</clipPath>
</defs>
</svg>
